<svg width="65" height="64" viewBox="0 0 65 64" fill="none" xmlns="http://www.w3.org/2000/svg">
<path fill-rule="evenodd" clip-rule="evenodd" d="M2.91042 25.1001L17.9005 10.6369H21.2817L4.57513 26.7562C1.63657 29.5916 1.63657 34.2308 4.57513 37.0659L5.28731 37.7531V41.0156L2.91169 38.7234C-0.970562 34.9777 -0.970562 28.847 2.91169 25.1013L2.91042 25.1001ZM18.6898 28.4759L17.979 27.8315C17.6297 27.442 17.0454 26.9003 16.638 26.5475C15.4008 25.4747 13.5451 24.8547 11.6894 24.8547C11.229 24.8547 10.5484 24.9755 10.112 25.0682C9.64646 25.1684 9.20498 25.3136 8.78122 25.5102C5.26582 27.1406 3.57959 31.0513 5.1115 34.6909C5.43026 35.4488 5.94385 36.1934 6.51436 36.773C6.75597 37.0195 7.13166 37.3906 7.47196 37.5981C7.58581 37.6676 7.62754 37.7128 7.73127 37.7799C8.38907 38.2095 9.06203 38.5183 9.85266 38.7393C10.7963 39.0029 11.4263 38.9993 12.3738 38.9993C12.967 38.9993 13.8981 38.7686 14.4382 38.5635C14.9948 38.3523 15.6286 38.0643 16.0535 37.7421C16.1954 37.6348 16.275 37.5981 16.4116 37.492L17.9739 36.026L18.6329 35.4475L19.0795 35.8759L19.6868 36.4569C19.6917 36.4618 19.6993 36.4679 19.7044 36.4728L20.3242 37.0648C20.5379 37.2393 20.7404 37.4724 20.9378 37.6615L21.4109 38.1303L21.8029 38.5208C21.7246 38.6453 21.1857 39.1749 21.0515 39.2935L20.495 39.8464C19.9776 40.3431 19.4563 41.1449 19.1818 41.8539C18.5342 43.5286 18.4584 45.0921 19.0099 46.7886C19.9283 49.6227 22.6328 51.412 25.6283 51.5975L26.6491 51.5901C28.0153 51.4741 29.3523 50.9689 30.4125 50.1694L30.8907 49.7728L32.2074 48.5474C32.5541 48.7524 33.4548 49.796 33.9746 50.1658C34.6464 50.643 35.3927 51.0605 36.2302 51.2947C37.0207 51.5157 37.7809 51.6194 38.6474 51.6194C40.1225 51.6194 41.8112 51.0202 42.9194 50.1401C43.0232 50.0571 43.0889 50.0243 43.1748 49.9547C44.4765 48.8989 45.2519 47.5185 45.6251 45.9111C45.7416 45.4082 45.7668 44.8503 45.7668 44.3342C45.7668 43.2064 45.2507 41.638 44.7144 40.8949C44.6347 40.7849 44.5677 40.6702 44.4879 40.5518C44.3222 40.3053 44.1528 40.1527 43.9832 39.9171L42.5854 38.5196C43.1193 37.9875 43.6531 37.4883 44.1958 36.9646L45.3937 35.8076L45.8086 35.455L46.4588 36.0748C47.1355 36.7254 47.6568 37.3271 48.4903 37.8825C50.8774 39.474 54.3511 39.4082 56.6963 37.7872C57.0228 37.5615 57.6653 37.1051 57.8993 36.8011C57.9575 36.7267 57.931 36.7401 57.9967 36.6644C58.0295 36.6277 58.0599 36.6021 58.0967 36.5643C58.6722 35.9467 59.1074 35.2109 59.4046 34.3869C59.4945 34.1379 59.5589 34.027 59.6311 33.7475C59.9259 32.5817 59.9447 31.3723 59.636 30.2079C59.0618 28.0316 57.3542 26.1179 55.1443 25.3539C54.9405 25.2831 54.7155 25.2062 54.4966 25.1488C53.3226 24.8413 52.1006 24.8132 50.9153 25.0707C50.2677 25.2122 49.7087 25.4307 49.1077 25.7127C48.966 25.7798 48.8433 25.8458 48.7181 25.9312C48.4841 26.0923 48.2133 26.2327 47.9869 26.4146C47.6517 26.6855 47.3128 26.9527 47.0216 27.2701L45.8062 28.5127L42.9573 25.7738L42.5766 25.355L43.1622 24.8021L44.0226 23.9479C44.2906 23.6561 44.5512 23.3046 44.7423 22.9898C45.2076 22.222 45.6985 20.9821 45.739 20.019L45.7657 19.3244C45.7795 19.1415 45.7264 19.0023 45.7313 18.8217C45.7441 18.4519 45.6075 18.0491 45.5493 17.7135C45.4557 17.1751 45.2267 16.6418 44.9712 16.1671C44.3095 14.9392 43.5873 14.224 42.4602 13.4685C42.3627 13.4025 42.2957 13.3525 42.1945 13.2951C40.4387 12.2724 38.0757 11.988 36.1264 12.6629C35.0829 13.0254 34.1075 13.5441 33.3308 14.2972L32.2074 15.3615L31.6231 14.8342C31.1916 14.418 30.9122 14.1556 30.4491 13.7858C30.0406 13.4575 29.5359 13.1829 29.0513 12.9558C28.7907 12.835 28.4895 12.7203 28.2405 12.6446C26.8907 12.2345 25.4207 12.1967 24.0471 12.5482C23.2108 12.7618 22.3658 13.1279 21.6777 13.6296C21.5893 13.6943 21.5122 13.7589 21.4311 13.8236L20.7543 14.3912C20.5051 14.6304 20.151 15.0233 19.96 15.3102C19.4766 16.0377 19.0795 16.7761 18.8645 17.6244C18.5367 18.9205 18.5633 20.3229 18.9998 21.5898C19.5665 23.235 20.6695 24.1858 21.2703 24.8266L21.8117 25.405C20.8213 26.4328 19.7044 27.4629 18.6885 28.4747L18.6898 28.4759ZM11.4491 37.5017C10.6597 37.5017 9.52376 37.0732 8.88241 36.7034C8.71796 36.6094 8.62434 36.5399 8.46876 36.4424C7.83753 36.048 6.98366 35.0522 6.64338 34.3052C6.19811 33.33 6.09691 32.7283 6.09691 31.6834C6.09691 30.281 7.09499 28.3794 8.22715 27.618C8.39665 27.5044 8.46876 27.4226 8.6155 27.3299C10.4421 26.1704 12.6875 26.0252 14.6292 27.0321C15.4389 27.4519 15.8524 27.917 16.4419 28.487L17.526 29.5683L16.1776 30.8511L15.2933 29.9907C14.3484 29.079 13.6236 28.2147 11.8273 28.2147C10.3245 28.2147 8.91529 29.1862 8.38147 30.3739C8.20311 30.7694 8.03612 31.3198 8.02728 31.7482C8.02222 32.0459 8.05385 32.0044 8.05385 32.1778C8.05385 33.1225 8.56743 33.9964 9.10125 34.509C9.38587 34.7824 9.67175 35.0362 10.0943 35.2364C10.5269 35.4427 10.9633 35.5695 11.4491 35.6124C12.5736 35.7112 13.4617 35.428 14.1574 34.9215C14.3155 34.8068 14.4585 34.692 14.6305 34.52C17.4046 31.8483 20.1446 29.1398 22.958 26.5085L24.2787 27.7838L15.998 35.8065C15.5401 36.2482 15.0885 36.6315 14.3978 36.9391C13.1897 37.4772 12.709 37.4993 11.4478 37.4993L11.4491 37.5017ZM13.6274 33.3531C13.2453 33.7328 12.8368 34.0196 12.265 34.1122C11.2619 34.2759 10.5939 33.8864 10.0437 33.2714C9.94247 33.1579 9.88808 33.0432 9.81217 32.9003C9.67049 32.6342 9.58194 32.2852 9.58067 31.9471C9.57688 30.6547 10.8077 29.4889 12.2814 29.76C13.0885 29.909 13.4136 30.3043 13.8323 30.7071C14.0005 30.8693 15.01 31.83 15.0505 31.9471L13.6286 33.3518L13.6274 33.3531ZM29.7698 43.9924L19.7562 34.3601L21.0756 33.0797L31.0779 42.6693L29.7698 43.9924ZM25.426 50.095C25.2854 50.095 24.9541 50.0291 24.8238 50.006C24.2128 49.8973 23.8623 49.7728 23.3058 49.4871C22.7289 49.1919 22.2089 48.8305 21.7599 48.3679C21.6979 48.3056 21.6715 48.2508 21.607 48.1849C20.7783 47.3427 20.1964 45.8378 20.1964 44.7002C20.1964 43.0076 20.81 41.6417 21.9597 40.5311L22.9263 39.6267C23.0706 39.678 23.7953 40.4309 23.9509 40.5738C24.037 40.6531 24.2166 40.8106 24.271 40.9009C24.1003 41.1375 23.3348 41.754 22.8897 42.319C22.0256 43.4115 21.8751 44.9456 22.5152 46.1882C22.9276 46.9888 23.5259 47.5453 24.3582 47.9127C25.6752 48.4949 27.2651 48.3423 28.3467 47.4477C28.4708 47.3453 28.5719 47.2914 28.6845 47.1804L35.943 40.1734C36.0632 40.0575 36.43 39.6608 36.5602 39.6217C36.7323 39.7535 37.7974 40.7813 37.8708 40.9009C37.776 41.0717 30.5857 47.9603 30.0393 48.4863C29.6548 48.8562 29.0236 49.3334 28.5227 49.5372C27.0932 50.1207 26.935 50.095 25.426 50.095ZM28.4088 29.6C27.9585 29.1631 27.5258 28.747 27.0741 28.3111C25.3575 26.6586 23.4082 24.8279 21.7498 23.1728C21.4664 22.8897 21.0947 22.3991 20.8986 22.0439C20.8213 21.9046 20.7657 21.7692 20.6898 21.6167C19.7943 19.7919 20.1383 17.5902 21.4058 15.9803C21.8321 15.4383 22.1053 15.2236 22.6392 14.8257C22.8706 14.6536 23.2489 14.4498 23.5095 14.3411C23.6801 14.2691 23.8358 14.1995 24.0155 14.1361C24.1926 14.0738 24.3532 14.0275 24.5403 13.9774C25.1197 13.8224 25.5979 13.8127 26.1811 13.8127C27.3171 13.8127 28.7781 14.3546 29.6509 15.0906C29.8432 15.2529 29.9761 15.3712 30.1468 15.5372L31.0905 16.466L29.7434 17.7427L28.8856 16.9519C28.5807 16.6565 28.3696 16.4428 27.9774 16.2097C26.72 15.4604 24.9818 15.4958 23.7851 16.327C23.2755 16.6821 23.116 16.8408 22.7479 17.3387C22.4431 17.7513 22.1267 18.5934 22.1267 19.1304C22.1267 21.0869 22.8378 21.5484 24.1218 22.8334C24.247 22.9361 24.3406 23.0081 24.4354 23.1276L25.6359 24.3128C25.8168 24.4885 25.7042 24.3347 25.9471 24.6093L28.0735 26.6549L31.0792 29.6196L29.728 30.8766L28.41 29.6013L28.4088 29.6ZM25.8382 46.7592C25.5727 46.7592 25.1843 46.6225 24.9668 46.5335C24.8251 46.475 24.748 46.4066 24.6251 46.3322C24.4733 46.2382 24.4607 46.2138 24.3468 46.1051C23.8409 45.6193 23.6816 45.0653 23.6816 44.4026C23.6816 43.6054 24.3481 42.9403 24.8679 42.4765C25.0439 42.319 25.216 42.158 25.393 42.0018L28.6137 45.0481L28.0951 45.623C27.4057 46.2882 27.0122 46.7592 25.8382 46.7592ZM25.4271 35.0401L22.2078 31.996L25.4271 28.8787L28.6137 31.9484L25.4271 35.0401ZM25.4271 21.9279C25.2894 21.8791 24.5063 21.0699 24.3367 20.9088C23.8738 20.4669 23.6828 19.9738 23.6828 19.2623C23.6828 18.2054 24.7112 17.1729 25.942 17.1729C27.2007 17.1729 27.8142 18.0467 28.6137 18.8314L25.4271 21.9279ZM27.8597 24.3054L26.5226 22.9861L34.7678 15.0894C36.6032 13.6613 38.9006 13.416 41.0471 14.4058C41.4633 14.5974 41.987 14.9466 42.2679 15.2089C43.013 15.9034 43.5773 16.5845 43.8997 17.5999C44.2804 18.7985 44.345 19.9043 43.92 21.1089C43.4291 22.4942 42.4968 23.2375 41.5001 24.3104L40.1111 22.9788C40.7196 22.5576 41.7493 21.4043 42.0125 20.755C42.4019 19.7943 42.3829 18.7387 41.9314 17.8123C41.4179 16.7578 40.359 15.907 39.0751 15.7118C38.0111 15.5507 37.0511 15.8167 36.3527 16.2525C34.4338 17.4498 29.7066 22.5259 27.8585 24.3042L27.8597 24.3054ZM27.8939 37.4187L26.5466 36.1628L36.5261 26.4999L37.8721 27.7851L27.8939 37.4187ZM32.21 41.6113L29.0095 38.5221L32.21 35.4317L35.4053 38.5221L32.21 41.6113ZM32.21 28.4955L28.9892 25.3649L32.21 22.2989L35.4218 25.4113L32.21 28.4955ZM44.2135 44.5673C44.2135 46.3406 43.1799 48.2519 41.6646 49.16C41.1218 49.4848 40.726 49.6972 40.0302 49.8962C39.3813 50.0816 38.6159 50.1548 37.862 50.089C37.1877 50.0291 36.5311 49.8326 35.986 49.5861C34.8714 49.0832 34.1657 48.3034 33.3333 47.4758L33.9949 46.8168L34.6781 46.1917L35.0765 46.5481C35.4713 46.9011 36.0188 47.4989 36.5743 47.7943C37.6874 48.3863 38.9296 48.4106 40.0833 47.8993C42.1831 46.9681 42.9333 44.433 41.6798 42.5388C41.4558 42.2007 41.137 41.8759 40.8347 41.6039L40.5502 41.3158C38.1416 38.9907 35.7165 36.6754 33.3333 34.3272L34.6438 33.0566L42.0416 40.1417C42.2641 40.3565 42.5045 40.5665 42.7082 40.7897C43.0725 41.1901 43.5533 41.8638 43.7505 42.3594C44.0162 43.0295 44.2135 43.7276 44.2135 44.5673ZM43.3532 30.8535L33.3359 21.2101L34.6755 19.9397L44.6473 29.6062L43.3532 30.8535ZM39.0334 21.9316L35.7987 18.8314C35.8834 18.6887 36.7197 17.9014 36.9019 17.7403C37.3155 17.3728 37.8481 17.1703 38.5148 17.1729C39.1839 17.1751 39.7215 17.5011 40.0706 17.8257C40.8335 18.5373 40.9486 19.7919 40.3111 20.6317L39.0334 21.9316ZM38.3414 46.758C37.2472 46.758 36.4882 45.7842 35.7976 45.0957L38.9927 41.9993C39.0713 41.9969 40.0023 42.9306 40.1225 43.0477C41.3648 44.2707 40.6361 46.758 38.3414 46.758ZM35.7976 31.9471L38.9927 28.8678L42.187 31.9471L38.9927 35.0534L35.7976 31.9471ZM40.1287 36.1432C42.6678 33.6718 45.1976 31.1904 47.7377 28.7201C47.9945 28.4723 48.5297 27.9425 48.8232 27.718C49.4428 27.2445 49.8806 26.9234 50.7496 26.6708C52.7281 26.0985 54.489 26.4267 56.0866 27.5861C57.4895 28.6041 58.3332 30.2933 58.3131 32.0154C58.3003 33.1566 57.8982 34.2991 57.2923 35.1266C57.0304 35.4843 56.8303 35.7002 56.5004 36.0151C55.7843 36.6961 54.7419 37.2015 53.711 37.4211C52.2828 37.7251 50.7648 37.448 49.5606 36.7534C48.6018 36.2007 47.705 35.1608 46.9193 34.3613L48.2058 33.0309C48.6586 33.3031 49.8059 34.9105 51.1138 35.4233C51.7882 35.6881 52.6459 35.7711 53.4162 35.5879C54.2321 35.3939 54.4333 35.2169 54.9861 34.8214C55.2606 34.625 55.6009 34.2588 55.7855 33.9707C56.4066 33.0027 56.5167 31.9434 56.2017 30.8462C56.0144 30.1932 55.5742 29.6366 55.1758 29.2584C55.0482 29.1374 54.9469 29.0777 54.8127 28.98C54.6534 28.8629 54.5851 28.825 54.4004 28.7188C53.4288 28.1659 52.1614 28.1318 51.1254 28.52C50.3867 28.7969 49.9665 29.1814 49.5366 29.5976L41.4989 37.4394L40.1287 36.1432ZM49.3392 31.9143C49.4152 31.797 50.3968 30.8938 50.5878 30.7084C51.2999 30.0211 52.0627 29.5159 53.2429 29.8661C53.4226 29.9185 53.5086 29.9687 53.6705 30.0479C54.9797 30.6875 55.425 32.8564 53.6566 33.9C52.7925 34.4102 51.5604 34.1758 50.8736 33.5032L50.2677 32.8662C50.1525 32.7514 50.0703 32.6648 49.9515 32.5427C49.7819 32.3693 49.4631 32.1047 49.3379 31.913L49.3392 31.9143ZM16.5191 7.1242H37.6165L40.0075 9.43099H16.4823C12.327 9.43099 8.92668 12.7117 8.92668 16.7211V17.5926L6.53586 19.8993V16.7566C6.53586 11.4583 11.0278 7.1242 16.5191 7.1242ZM44.5259 7.1242H47.887C53.377 7.1242 57.8702 11.4583 57.8702 16.7566V24.9633L55.4794 22.6566V16.72C55.4794 12.7105 52.0791 9.42977 47.9238 9.42977H46.9167L44.5259 7.1242ZM57.8702 44.0205V47.1633C57.8702 52.4617 53.3783 56.7956 47.887 56.7956H26.7896L24.3986 54.4889H47.9238C52.0791 54.4889 55.4794 51.2093 55.4794 47.1987V46.3273L57.8702 44.0205ZM19.8789 56.7956H16.5178C11.0278 56.7956 6.5346 52.4617 6.5346 47.1633V38.9565L8.92542 41.2634V47.2C8.92542 51.2093 12.3257 54.4901 16.4812 54.4901H17.4881L19.8789 56.7956ZM10.174 42.4668L26.911 58.6155C29.8496 61.4506 34.6577 61.4506 37.5964 58.6155L38.2352 57.9991H41.6164L39.313 60.2216C35.4306 63.9674 29.078 63.9674 25.1944 60.2216L10.174 45.7293V42.4668ZM22.7884 5.92077L25.092 3.69822C28.9742 -0.0475587 35.327 -0.0475587 39.2104 3.69822L54.2321 18.1907V21.4531L37.4938 5.3044C34.5554 2.46915 29.7471 2.46915 26.8085 5.3044L26.1698 5.92077H22.7884ZM59.1176 22.9067L61.4931 25.1989C65.3754 28.9446 65.3754 35.0742 61.4931 38.821L46.5018 53.2854H43.1204L59.8272 37.1649C62.7656 34.3295 62.7656 29.6905 59.8272 26.855L59.1164 26.1691L59.1176 22.9067Z" fill="#996F29"/>
</svg>
